<svg xmlns="http://www.w3.org/2000/svg" viewBox="195 67 432 455">
  <rect x="195" y="67" width="432" height="455" fill="#1A1A1A"/>
  <path fill="#C8922A" d="M 621.03125 440.40625 C 614.191406 434.347656 607.511719 428.097656 601.0625 421.625 C 598.222656 418.777344 596.652344 418.457031 593.597656 421.617188 C 575.445312 440.421875 553.980469 454.679688 529.683594 463.980469 C 490.292969 479.054688 449.980469 480.859375 409.320312 469.058594 C 383.957031 461.703125 361.382812 449.082031 341.207031 432.082031 C 339.179688 430.378906 338.550781 428.542969 338.558594 425.996094 C 338.640625 401.210938 338.722656 289.335938 338.585938 258.183594 C 338.570312 254.488281 339.589844 253.351562 343.253906 253.5625 C 348.496094 253.871094 353.789062 253.898438 359.03125 253.5625 C 363.042969 253.304688 364.121094 254.589844 364.109375 258.605469 C 363.988281 304.710938 364.121094 350.816406 363.972656 396.925781 C 363.957031 401.269531 365.308594 404.007812 368.667969 406.640625 C 403.359375 433.820312 442.546875 444.300781 485.996094 437.582031 C 517.605469 432.695312 544.601562 418.191406 567.371094 395.730469 C 569.742188 393.390625 569.652344 392.105469 567.234375 389.921875 C 560.035156 383.433594 552.960938 376.796875 546.0625 369.992188 C 543.722656 367.679688 542.503906 368.273438 540.417969 370.269531 C 514.03125 395.535156 482.714844 406.101562 446.382812 401.484375 C 431.472656 399.59375 417.707031 394.460938 404.710938 386.984375 C 401.816406 385.316406 400.855469 383.375 400.867188 380.074219 C 401 344.488281 401.128906 261.425781 400.8125 258 C 400.453125 254.152344 401.988281 253.375 405.515625 253.480469 C 413.820312 253.730469 422.140625 253.441406 430.445312 253.640625 C 433.28125 253.707031 434.226562 252.703125 434.667969 250.042969 C 436.238281 240.621094 438.039062 231.242188 439.75 221.84375 C 440.660156 216.851562 440.664062 216.835938 435.605469 216.835938 C 418.710938 216.835938 401.8125 216.859375 384.914062 216.824219 C 383.886719 216.820312 382.4375 217.40625 381.898438 216.199219 C 381.34375 214.953125 382.796875 214.34375 383.519531 213.621094 C 388.207031 208.882812 393.367188 204.671875 398.886719 200.964844 C 443.878906 170.78125 501.839844 176.027344 540.429688 213.84375 C 542.863281 216.230469 544.125 215.949219 546.351562 213.773438 C 553.085938 207.191406 559.910156 200.691406 566.980469 194.480469 C 569.910156 191.90625 569.414062 190.503906 566.925781 188.03125 C 540.914062 162.207031 509.398438 148.070312 473.144531 145.234375 C 432.273438 142.039062 396.085938 154.34375 364.824219 180.929688 C 352.679688 191.253906 342.980469 203.648438 334.300781 216.902344 C 320.679688 216.898438 307.058594 216.890625 293.4375 216.886719 C 293.011719 215.382812 293.882812 214.207031 294.453125 212.972656 C 327.386719 141.949219 407.300781 98.4375 484.925781 109.007812 C 527.597656 114.820312 564.128906 132.765625 594.410156 163.347656 C 596.542969 165.507812 597.773438 165.746094 600.03125 163.535156 C 606.960938 156.761719 614.023438 150.117188 621.234375 143.652344 C 623.714844 141.429688 623.65625 140.085938 621.355469 137.785156 C 607.679688 124.121094 592.769531 112.042969 576.144531 102.136719 C 544.4375 83.257812 510.109375 72.988281 473.277344 70.992188 C 459.964844 70.265625 446.679688 70.78125 433.484375 72.503906 C 399.234375 76.972656 367.675781 88.71875 338.886719 107.910156 C 322.589844 118.769531 279.90625 154.753906 254.507812 212.636719 C 253.183594 215.65625 251.875 216.878906 248.507812 216.839844 C 233.277344 216.660156 218.039062 216.828125 202.800781 216.730469 C 199.777344 216.710938 198.941406 217.605469 199.527344 220.609375 C 201.445312 230.390625 203.226562 240.203125 204.871094 250.03125 C 205.324219 252.742188 206.386719 253.726562 209.191406 253.675781 C 217.777344 253.511719 226.371094 253.796875 234.953125 253.539062 C 238.667969 253.429688 239.65625 254.664062 239.613281 258.265625 C 239.441406 272.941406 239.625 393.675781 239.507812 439.367188 C 239.496094 443.183594 240.503906 444.375 244.390625 444.25 C 253.523438 443.96875 262.671875 443.988281 271.808594 444.246094 C 275.488281 444.351562 276.507812 443.265625 276.480469 439.601562 C 276.3125 418.691406 276.484375 297.953125 276.382812 258.492188 C 276.375 254.777344 277.273438 253.273438 281.230469 253.550781 C 286.054688 253.890625 290.917969 253.636719 295.765625 253.640625 C 301.785156 253.644531 301.785156 253.644531 301.792969 259.734375 C 301.816406 320.242188 301.855469 380.75 301.800781 441.257812 C 301.792969 444.261719 302.597656 446.414062 304.765625 448.542969 C 316.871094 460.433594 329.964844 471.105469 344.429688 479.9375 C 390.609375 508.125 440.589844 518.679688 494.191406 511.003906 C 543.746094 503.902344 585.839844 481.871094 621.136719 446.527344 C 623.554688 444.101562 623.695312 442.765625 621.03125 440.40625 "/>
</svg>
